<svg viewBox="0 0 864 224"  version="1.1" xmlns="http://www.w3.org/2000/svg">
<g id="qubit_lines">
<path id="qubit_line:0" d="M64,64 L832,64 " stroke="black"/>
<text dominant-baseline="central" text-anchor="end" font-family="monospace" font-size="12" x="64" y="64">q0</text>
<path id="qubit_line:1" d="M64,128 L832,128 " stroke="black"/>
<text dominant-baseline="central" text-anchor="end" font-family="monospace" font-size="12" x="64" y="128">q1</text>
</g>
<rect x="80" y="48" width="32" height="32" stroke="black" fill="black"/>
<text dominant-baseline="central" text-anchor="middle" font-family="monospace" font-size="30" x="96" y="64" fill="white">R</text>
<rect x="80" y="112" width="32" height="32" stroke="black" fill="black"/>
<text dominant-baseline="central" text-anchor="middle" font-family="monospace" font-size="30" x="96" y="128" fill="white">R</text>
<rect x="144" y="48" width="32" height="32" stroke="black" fill="pink"/>
<text dominant-baseline="central" text-anchor="middle" font-family="monospace" font-size="12" x="160" y="64">ERR<tspan baseline-shift="sub" font-size="10">X</tspan></text>
<text dominant-baseline="hanging" text-anchor="middle" font-family="monospace" font-size="10" stroke="red" x="160" y="84">0.01</text>
<rect x="144" y="112" width="32" height="32" stroke="black" fill="pink"/>
<text dominant-baseline="central" text-anchor="middle" font-family="monospace" font-size="12" x="160" y="128">ERR<tspan baseline-shift="sub" font-size="10">X</tspan></text>
<text dominant-baseline="hanging" text-anchor="middle" font-family="monospace" font-size="10" stroke="red" x="160" y="148">0.01</text>
<path d="M224,64 L224,128 " stroke="black"/>
<circle cx="224" cy="64" r="12" stroke="none" fill="black"/>
<circle cx="224" cy="128" r="12" stroke="black" fill="white"/>
<path d="M212,128 L236,128 M224,116 L224,140 " stroke="black"/>
<rect x="272" y="48" width="32" height="32" stroke="black" fill="pink"/>
<text dominant-baseline="central" text-anchor="middle" font-family="monospace" font-size="12" x="288" y="64">ERR<tspan baseline-shift="sub" font-size="10">X</tspan></text>
<text dominant-baseline="hanging" text-anchor="middle" font-family="monospace" font-size="10" stroke="red" x="288" y="84">0.01</text>
<rect x="272" y="112" width="32" height="32" stroke="black" fill="pink"/>
<text dominant-baseline="central" text-anchor="middle" font-family="monospace" font-size="12" x="288" y="128">ERR<tspan baseline-shift="sub" font-size="10">X</tspan></text>
<text dominant-baseline="hanging" text-anchor="middle" font-family="monospace" font-size="10" stroke="red" x="288" y="148">0.01</text>
<rect x="336" y="48" width="32" height="32" stroke="black" fill="black"/>
<text dominant-baseline="central" text-anchor="middle" font-family="monospace" font-size="30" x="352" y="64" fill="white">M</text>
<text text-anchor="middle" font-family="monospace" font-size="8" x="352" y="44">rec[0]</text>
<rect x="336" y="112" width="32" height="32" stroke="black" fill="black"/>
<text dominant-baseline="central" text-anchor="middle" font-family="monospace" font-size="30" x="352" y="128" fill="white">M</text>
<text text-anchor="middle" font-family="monospace" font-size="8" x="352" y="108">rec[1]</text>
<rect x="400" y="48" width="160" height="32" stroke="black" fill="lightgray"/>
<text dominant-baseline="central" text-anchor="middle" font-family="monospace" font-size="16" x="480" y="64">DETECTOR</text>
<text text-anchor="middle" font-family="monospace" font-size="8" x="480" y="44">D0 = rec[0]</text>
<rect x="400" y="112" width="160" height="32" stroke="black" fill="lightgray"/>
<text dominant-baseline="central" text-anchor="middle" font-family="monospace" font-size="16" x="480" y="128">DETECTOR</text>
<text text-anchor="middle" font-family="monospace" font-size="8" x="480" y="108">D1 = rec[1]</text>
<rect x="592" y="48" width="224" height="32" stroke="black" fill="lightgray"/>
<text dominant-baseline="central" text-anchor="middle" font-family="monospace" font-size="16" x="704" y="64">OBS_INCLUDE(0)</text>
<text text-anchor="middle" font-family="monospace" font-size="8" x="704" y="44">L0 *= rec[1]*rec[0]</text>
</svg>